<?xml version="1.0" encoding="utf-8"?>
<!-- Generator: Adobe Illustrator 21.0.0, SVG Export Plug-In . SVG Version: 6.00 Build 0)  -->
<svg version="1.1" baseProfile="basic" id="Layer_1"
	 xmlns="http://www.w3.org/2000/svg" xmlns:xlink="http://www.w3.org/1999/xlink" x="0px" y="0px" viewBox="0 0 4000 4000"
	 xml:space="preserve">
<style type="text/css">
	.st0{clip-path:url(#SVGID_2_);fill:#FDDB4C;}
	.st1{clip-path:url(#SVGID_2_);fill:#3271E0;}
	.st2{clip-path:url(#SVGID_2_);fill:#FFFFFF;}
	.st3{fill:#3271E0;}
	.st4{fill:#FFFFFF;}
	.st5{fill:none;stroke:#3271E0;stroke-width:0;stroke-linecap:round;stroke-linejoin:round;}
</style>
<g>
	<defs>
		<rect id="SVGID_1_" width="4000" height="4000"/>
	</defs>
	<clipPath id="SVGID_2_">
		<use xlink:href="#SVGID_1_"  style="overflow:visible;"/>
	</clipPath>
	<path class="st0" d="M1921.1,996.4c-370.9,0-734.1,189.9-911.3,414.3l327.6,1497.6h1585.4c134.2-195.9,215.8-437,215.8-692.4
		C3138.6,1542.3,2594.6,996.4,1921.1,996.4"/>
	<path class="st1" d="M1317.6,2909.1L993.9,1429.6l-10.7,2.3c-27,5.8-44.2,32.4-38.5,59.5l304.5,1425.5c0.4,3.2,1.1,6.2,2,9.2l0,0.1
		h0c7.3,24.1,29.7,41.6,56.1,41.6h1578.6c21.7,0,39.3-17.6,39.3-39.3v-19.4H1317.6z"/>
	<path class="st2" d="M1488.7,2948.5h-77c-5.3,0-9.6-4.3-9.6-9.6c0-5.3,4.3-9.6,9.6-9.6h77c5.3,0,9.6,4.3,9.6,9.6
		C1498.3,2944.2,1494,2948.5,1488.7,2948.5"/>
	<path class="st2" d="M1605.2,2948.5h-77c-5.3,0-9.6-4.3-9.6-9.6c0-5.3,4.3-9.6,9.6-9.6h77c5.3,0,9.6,4.3,9.6,9.6
		C1614.9,2944.2,1610.5,2948.5,1605.2,2948.5"/>
	<path class="st1" d="M2390.4,2913.2c-2,0-3.9-0.9-5.2-2.5c-1.3-1.6-1.8-3.6-1.4-5.6l69.4-348H2322c-2,0-3.9-0.9-5.2-2.5
		c-1.3-1.6-1.8-3.6-1.4-5.6l11.7-58.7H2532c2,0,3.9,0.9,5.2,2.5c1.3,1.6,1.8,3.6,1.4,5.6c-0.1,0.6-11.1,53.7-11.3,54.5l-70.7,354.8
		c-0.6,3.2-3.4,5.5-6.6,5.5H2390.4z"/>
	<path class="st1" d="M2738.4,2913.2c-3,0-5.6-2.1-6.5-5.2l-0.4-1.4l80.1-410.8c0.6-3.2,3.4-5.5,6.6-5.5H2951l-12.3,61.4
		c-0.6,3.2-3.4,5.4-6.6,5.4h-57.5l-69.9,350.7c-0.6,3.2-3.4,5.5-6.6,5.5H2738.4z"/>
	<path class="st1" d="M2497.3,2913.2c-2,0-3.9-0.9-5.2-2.5c-1.3-1.6-1.8-3.6-1.4-5.6l81.7-409.4c0.6-3.2,3.4-5.4,6.6-5.4h54.1
		c3.4,0,6.2,2.4,6.7,5.8l29.6,194.3l109-196.6c1.4-2.6,4.2-3.5,6.2-3.5h7.4l-35,168.3l-90,159.3c-1.2,2.2-3.5,3.5-5.9,3.5H2628
		c-3.5,0-6.3-2.6-6.7-6l-14.1-125.6l-43.7,217.9c-0.6,3.2-3.4,5.4-6.6,5.4H2497.3z"/>
	<polygon class="st1" points="2959.6,2489.4 2970.7,2489.4 2968.6,2541.5 2987.4,2489.4 2998.5,2489.4 2970.7,2557.7 2960.2,2557.7 
			"/>
	<polygon class="st1" points="3004.3,2489.4 3012.8,2489.4 3019.7,2530.8 3027.6,2489.4 3037.7,2489.4 3024.1,2557.7 3016,2557.7 
		3009.1,2516.4 3000.8,2557.7 2990.7,2557.7 	"/>
</g>
<g>
	<path class="st3" d="M2488.1,2353.3c-38.1-7.1-57.3-7.8-68-11.5c-39.9-44.6-105.5-92.1-108.2-93.8l-1.3-0.8l-1.4-0.7
		c-2.4-1.2-48-28.2-104.4-34.9c-38.4-4.6-66.1-29.1-86.2-47.1c-2.2-1.9-4.3-3.8-6.3-5.5c-14.5-12.6-57.4-59.7-81.1-86.1
		c-0.3,0.5-0.5,1.1-0.8,1.6c-2.5,4.7-4.9,8.6-7.2,12.3c-5.9,9.6-11,17.8-16.6,39.8c-0.5,2.1-1,4-1.5,5.8l-0.4,1.4
		c-0.4,1.6-0.8,3.1-1.2,4.5l-0.1,0.2l-0.1,0.5c-0.5,1.6-0.9,3.1-1.3,4.6l-0.3,0.8l-0.1,0.2c-0.2,0.7-0.4,1.3-0.6,2
		c1.5,1.2,2.8,2.5,4,4c8.7-33.2,17.7-48.9,17.7-48.9s49.2,56.5,70.8,75.3c21.6,18.8,55.9,53.1,108,59.3
		c52.1,6.2,95.1,32.2,95.1,32.2s69.7,49.7,106.9,94c0,0,28.4,15,76.5,14.4c40.5-0.5,64.1,15,63.1,50.3
		c-0.4,13.5-16.6,23.6-37.2,31.1c-0.2,1.5-0.5,3.1-0.9,4.7l-26.3,7.3c0,0,2.5-1.7,4.9-5.3c-19.4,4.9-39.2,7.9-52.2,9.4
		c-33.1,3.8-30.5-18.3-65.9-10.7c-35.5,7.5-59.9,14-80.2-15.6c-20.3-29.6-67.4-30.7-97-34c-4.1-0.5-11.6-1.7-21.7-3.6
		c-0.8,1.3-1.2,2.1-1.2,2.1l-44.4-8.3c0,0,0.9-0.8,2.3-2.3c-15.8-3.2-33.2-6.8-50.7-10.4c-2.3,1.9-4.5,3.6-6.9,5.1l-72.6-15.2
		c0,0,3.4-1.8,8.4-4.9c-20.9-4.5-38.3-8.2-48.4-10.4c-4.2,15.8-6.8,25.8-6.7,26c0,0-0.9-0.2-2.1,0.2l1.3,0.3
		c21.4,4.4,209.5,42.9,239.6,46.2c3.4,0.4,7.1,0.7,10.9,1.1c24.6,2.4,55.2,5.4,66,21.2c18.1,26.5,44.8,39.1,79.3,37.6
		c9.9-0.4,16.6-3.9,30.2-6.8c3.7-0.8,6.8-1.2,9.2-1.3c2.7-0.1,3,0,7,1.5c6.8,2.6,21.3,8.5,38.8,7.7c2.7-0.1,5.5-0.4,8.4-0.7
		c12.8-1.5,34.5-2.7,63.7-11.8c16.4-5.2,33.8-10.4,43.4-17.2c21.2-15.1,28-29.3,28.3-45.1C2571,2375.8,2523.3,2359.9,2488.1,2353.3z
		"/>
	<path class="st3" d="M1978.1,2272.1c4-13.1,7.8-27,11-41C1985.6,2244.1,1981.9,2258.1,1978.1,2272.1z"/>
	<path class="st3" d="M1946.3,2392.3c0-0.2,2.6-10.2,6.7-26c-6.1-1.3-9.5-2.1-9.5-2.1s18.9-40.7,34.6-92.2c3.7-14,7.5-27.9,11-41
		c2.4-10.7,4.5-21.6,6.1-32.3c2.8-18.8,6.2-34.8,9.7-48c-1.2-1.5-2.5-2.8-4-4c0.2-0.6,0.4-1.3,0.6-2l0.1-0.2l0.3-0.8
		c0.4-1.4,0.9-2.9,1.3-4.6l0.1-0.5l0.1-0.2c0.4-1.4,0.8-2.9,1.2-4.5l0.4-1.4c0.5-1.8,1-3.8,1.5-5.8c5.6-22,10.7-30.2,16.6-39.8
		c2.3-3.8,4.7-7.6,7.2-12.3c0.3-0.5,0.5-1,0.8-1.6c4.3-8.8,7-19.8,9.4-30.4c0.4-1.7,0.8-3.5,1.2-5.2l0-0.2c2.3-10,6-26.9,9.3-31.6
		c4.7-6.8,23.4-20.2,37.1-30c2.6-1.9,5.2-3.8,7.8-5.6c6.3-4.5,13.5-9.8,20-15.2c6.1-5,13.5-11.6,21.9-19.6c1.6-1.5,3.2-3.1,4.8-4.6
		l2.4-2.3c3.1-3,6.1-6.1,9-8.9l2.1-2.1c4.6-4.6,8.6-8.8,11.6-12c6.1-1.1,12-1.9,15.9-2.1l31.4,14.3c0.9,0.4,1.8,0.8,2.7,1.1
		c4.5,2.3,8.6,4.4,11.9,6.1l0.4,0.2c0,0,0.1,0.1,0.1,0.1l2.4,1.2l4.1,2.2c6.2,3.2,13.2,4,19.9,2.3c1.6-0.4,3.1-1,4.6-1.7l38.9-18
		c3.8-1.8,7.1-4.4,9.8-7.6c11-13.5,25-31.5,29.2-40.3c2.8-5.9,5.1-15.1,2-26.9c4.4-6.6,9-14.9,12.3-24.1c0.8-2.2,1.5-4.5,2.1-6.7
		c1.8-6.5,2.6-13,2.6-19.2c0-4.4-0.5-8.8-1.4-12.9c-2.5-11.5-12.1-20.2-23.8-21.5c-3.5-0.4-6.9-0.1-10.1,0.7c-1,0.3-1.9,0.6-2.9,0.9
		c-3.7-3.4-8.3-5.7-13.3-6.8c-4.4-0.9-8.9-0.8-13.2,0.3c-11.4,3-17.9,11.5-22.6,20.4c-3.9-3.7-9.8-10.5-16.8-20.3l-0.4-0.8
		c0,0,0-0.1-0.1-0.1c-0.2-0.5-0.4-1-0.7-1.6c0-0.1,0-0.1-0.1-0.2c-0.3-0.6-0.5-1.2-0.7-1.8c0-0.1-0.1-0.1-0.1-0.2
		c-0.3-0.7-0.5-1.4-0.8-2.1c0-0.1,0-0.1-0.1-0.2c-0.3-0.8-0.6-1.5-0.9-2.3c0,0-0.1-0.2-0.1-0.3c-0.3-0.8-0.6-1.6-0.8-2.4l-0.1-0.3
		c-0.3-0.9-0.6-1.7-0.8-2.5l-0.2-0.5c-0.3-0.8-0.5-1.6-0.8-2.4l-0.2-0.5c-0.2-0.8-0.5-1.5-0.7-2.3l-0.2-0.6l0-0.2
		c-0.2-0.6-0.4-1.3-0.5-2l-0.2-0.7l0-0.2c-0.1-0.5-0.3-1.1-0.4-1.7l-0.1-0.2l-0.2-0.7l0-0.2c-0.1-0.5-0.2-1.1-0.4-1.8l-0.2-0.8
		c-0.1-0.7-0.3-1.5-0.4-2.2c0-0.2,0-0.4-0.1-0.6c-0.1-0.6-0.1-1.5-0.2-3.1c0-1.4-0.1-3,0-4.7c0.2-27.8,7.2-77.5,19.9-101.3l1-1.1
		c1.7,2.8,3.3,6.2,4.7,10.3c2.7,8.3,9.3,14.8,17.6,17.6c5.1,1.7,10.5,1.8,15.6,0.5c3.2-0.8,6.2-2.2,8.9-4.2
		c3.6-2.6,8.9-7.6,11.9-16.5c6.3-3,13.9-9.3,16.8-23c0.8-3.5,1.3-7.9,1.7-13.4c1.2-16.5-1.6-33.9-4.4-46c0.1-0.2,0.2-0.4,0.3-0.6
		c0.3-0.7,0.8-1.6,1.2-2.6c0.1-0.2,0.1-0.3,0.2-0.5c1.3-3.4,2.2-6.9,2.6-10.7c0-0.1,0-0.2,0-0.3c0-0.1,0-0.2,0-0.3
		c0.2-1.6,0.2-3.2,0.2-4.7c0-1.9-0.1-3.9-0.4-6c-0.1-0.6-0.2-1.2-0.3-1.9c-0.2-1-0.4-2-0.6-3c-0.1-0.5-0.3-1-0.4-1.5
		c0,0,0-0.2,0-0.2c-0.2-0.9-0.5-1.7-0.8-2.7c-0.2-0.5-0.3-1-0.5-1.6c-0.3-0.8-0.6-1.6-0.9-2.5c-0.2-0.5-0.4-1-0.6-1.5
		c-0.3-0.8-0.6-1.6-1-2.4l-0.1-0.2l-0.4-1c-0.4-0.9-0.8-1.8-1.1-2.7l-0.1-0.1l-0.4-0.8c-0.5-1-0.9-2.1-1.4-3.1l-0.2-0.3
		c-1-2.1-2.1-4.4-3.3-6.7l-0.2-0.4c-0.5-1-0.9-1.8-1.3-2.5l-0.3-0.6l-0.1-0.2c-0.3-0.6-0.7-1.2-1-1.8l-0.4-0.7
		c-7-21.9-14.8-34-17.3-37.5c-5-8.4-15.4-17.8-36.6-21.3c-3.9-0.7-7.8-0.5-11.6,0.5c-0.1,0-12.5,3.2-38.4,7.4l-1.5,0.2
		c-10.8,1.7-20,3.2-29.4,5.7c-13.9,3.7-26.4,9-41,17.7c-4.4-1.1-10.1-2.5-17.2-4.2c-10.2-2.5-22.5-1.7-39.8,2.9
		c-21.8,5.7-46.9,16.2-56.3,20.2l-1,0.4l-0.4,0.2l-0.4,0.2c-0.3,0.1-0.5,0.2-0.7,0.3c-3.3,1.2-6,2.8-9.8,5.1
		c-3.8,2.4-9.6,5.9-17.1,9.9c-1.2,0.6-2.5,1.3-3.8,2c-2.8,1.4-5.6,2.7-8.3,4c-4.7,2.1-9.5,4.1-14.2,5.9c-2,0.8-4.1,1.6-6.6,2.7
		c-0.5,0.2-1.1,0.5-1.7,0.7l-0.3,0.1c-1.6,0.7-3.2,1.5-4.8,2.3l-0.4,0.2c-0.5,0.3-1,0.5-1.5,0.8c-2.3,1.2-4.4,2.3-6.4,3.4
		c-0.3,0.1-0.5,0.3-0.8,0.5c-1.8,1-3.7,2.1-5.6,3.3c-0.6,0.4-1.2,0.7-1.8,1.1l-0.3,0.2c-1.5,0.9-3,1.9-4.5,2.9l-0.5,0.3
		c-0.5,0.3-1,0.7-1.6,1c-2,1.3-4.1,2.7-6.1,4.2c-0.4,0.3-0.8,0.6-1.2,0.8l-0.5,0.4c-1.5,1.1-3.1,2.2-4.7,3.3
		c-0.8,0.6-1.7,1.3-2.6,1.9c-1.3,1-2.6,2-3.9,3l-0.6,0.5c-0.6,0.5-1.3,1-1.9,1.5c-1.9,1.5-3.9,3-5.8,4.6c-0.6,0.5-1.2,1-1.9,1.5
		l-0.8,0.7c-1.2,1-2.4,1.9-3.6,2.9c-1,0.8-2.1,1.7-3.1,2.6c-1.1,0.9-2.2,1.8-3.2,2.7l-0.6,0.5c-0.8,0.7-1.6,1.4-2.5,2.1
		c-1.8,1.6-3.6,3.1-5.4,4.7c-7.4,6.5-15.2,13.6-23.2,21.3c-14.8,4-46.2,13.7-76.4,29.7c-3.9,2.1-96,51.2-128.2,78
		c-1.6,1.4-3.6,3-5.6,4.8l-0.3,0.3l-0.1,0.1c-1.2,1.1-2.5,2.2-3.8,3.3l-0.3,0.3l-0.4,0.4l-2,1.7l-0.4,0.3l-0.5,0.5l-2,1.8l-0.8,0.7
		l-0.1,0.1l-2.2,2l-0.3,0.3c-2.6,2.3-5.3,4.8-8.1,7.4l-0.8,0.7l-2.5,2.3l-0.8,0.7l-0.4,0.4l-2.2,2l-0.2,0.1l-0.4,0.4
		c-2.8,2.6-5.7,5.2-8.6,7.9l-0.4,0.4l-0.5,0.4l-1.4,1.3l-1.1,1l-0.5,0.5l-0.4,0.3l-1.7,1.6l-0.7,0.7l-0.9,0.8l-0.7,0.6l-0.6,0.5
		l-1.4,1.3l-2.1,2l-1.1,1.1l-2.4,2.3l-0.9,0.8l-2.3,2.1l-1.5,1.4l-0.6,0.6l-0.9,0.8l-1,0.9l-1.3,1.2l-0.6,0.6l-0.4,0.4l-3.2,3
		l-0.5,0.5l-0.5,0.4l-1.5,1.4l-0.5,0.5l-1.7,1.6l-0.7,0.7l-0.4,0.4l-1.7,1.6l-0.4,0.4l-1,0.9l-0.8,0.7l-0.2,0.2l-3.9,3.7l-1.9,1.7
		l-0.6,0.6l-0.3,0.2l-0.2,0.2l-0.2,0.2l-0.8,0.7l-1.2,1.1l-0.1,0.1l-81.8,21.4c-5.4,1.4-10.2,4.4-13.8,8.6l-54.9,62.9
		c-3.7,0.9-8.4,2.1-13.7,3.4l-0.4,0.1l-0.4,0.1c-9.7,2.4-21.4,5.3-33.1,8.3l-0.6,0.2l-3.7,0.9l-0.4,0.1l-0.8,0.2
		c-8.7,2.2-17.2,4.3-24.6,6.2c0,0,0,0-0.1,0l-3.7,0.9c-0.1,0-0.1,0-0.2,0c-2.8,0.7-5.6,1.4-8,2.1c-7,1.8-11.1,2.9-14,3.9
		c-7.8,2-41.9,9.6-72.1,16.4l-2.8,0.6l-3.7,0.8l-2.2,0.5c-37,8.3-80.5,18.1-122,27.6l5.9,26.9c14.9-3.4,30-6.8,45-10.2l-9.6,101.1
		c0,0,21,161,31.1,178.5c10.2,17.5,72.8,111.7,88.3,136.7c15.5,25,33.4,33.7,33.4,33.7s-12.9-23.5-25.3-58.2
		c-12.5-34.7-41.5-98.7-51.4-162c-9.9-63.3-20.4-90.8-18-111.5c2.4-20.7,24.6-98.1,25.9-101.8c0.8-2.3,7.5-22,12.2-36.1
		c38.6-8.7,67.2-15.2,72.9-16.7c0.6-0.2,1-0.3,1-0.3c0.4-0.3,5.1-1.6,12.3-3.4c2.4-0.6,5.1-1.3,8-2.1l-7.6,150
		c0,0-5.4,34.9,15.3,75.4c20.6,40.4,91.9,129,91.9,129l59.9,79.3c0,0-11.1-55.2-38-115.2c-26.9-60-29.5-57.1-29.5-57.1
		s-33.6-51.5-38.3-69.3c-4.7-17.8,0-89.4,0.3-92.8c0.2-2.7,9.5-81.3,13.6-116.2c0,0,0,0,0,0c13-3.2,22.1-5.5,22.1-5.5l60.6-69.5
		l88.3-23.1c-14.9,42.6-27.4,109.8-22.5,197.6c10.2,179.5,85.2,257.1,85.2,257.1s-48.6-194-43-274.9c0,0,30.2,77,72.3,109.6
		c42.1,32.6,49,63.2,49,63.2s10.6-10.6-8.6-41.3c-19.2-30.7-32.5-47.4-55.9-98.2c-23.4-50.9-38.4-82.7-29.4-142.1
		c7.8-51,20.2-115.6,42.3-153.3c0,0,0,0,0,0c1.9-1.7,3.7-3.2,5.2-4.5c22.5-18.7,86.2-55,123.5-74.8c30.5-16.2,62.8-25.4,73.6-28.3
		c2.4-0.6,3.7-0.9,3.7-0.9c9.1-8.7,18.3-17.3,27.6-25.4c1.7-1.5,3.5-3,5.2-4.5c1-0.8,2-1.7,2.9-2.5c1-0.9,2.1-1.7,3.1-2.6
		c1-0.8,2-1.6,2.9-2.4c1.1-0.9,2.3-1.9,3.4-2.8c0.8-0.7,1.7-1.4,2.5-2c1.8-1.5,3.6-2.9,5.5-4.3c0.8-0.6,1.6-1.2,2.4-1.8
		c1.2-0.9,2.5-1.9,3.7-2.8c0.8-0.6,1.6-1.2,2.4-1.8c1.4-1,2.9-2.1,4.3-3.1c0.5-0.4,1-0.8,1.6-1.1c1.6-1.1,3.3-2.2,4.9-3.3
		c-12.4,58.7,13.7,88.2,13.7,88.2c-11.6-33.2,21-93.5,30.9-110.5c1.1-0.5,2.3-1,3.4-1.5c3.3-1.5,6.4-3,9.3-4.5
		c1.5-0.7,2.9-1.5,4.2-2.2c13.5-7.2,21.9-13.1,23.2-13.4c0.1,0,0.2-0.1,0.4-0.1l0,0c0.4-0.1,0.9-0.4,1.7-0.7
		c0.2-0.1,0.6-0.2,0.8-0.4c8.3-3.5,32.9-14,53.7-19.4c10.6-2.8,20.3-4.3,26.2-2.8c19.7,4.9,28.7,7,28.7,7
		c17.9-11.8,30.1-17.2,43.1-20.6c8.5-2.2,17.3-3.6,28.3-5.4c27.9-4.5,40.9-7.9,40.9-7.9c15,2.5,17.8,8.3,18.3,10.2
		c-0.8,0.9-1.7,1.7-2.6,2.6c-0.5,0.4-1,0.9-1.6,1.5c-14.3,12.6-33.4,18.8-44.2,21.5c-1.4,0.1-2.6,0.3-3.6,0.5
		c-0.6,0.2-1.2,0.4-1.5,0.6c0,0,0.1,0,0.1,0c0.7-0.1,1.4-0.3,2.2-0.5c-0.8,0.2-1.5,0.3-2.2,0.5c-2.2,0.4-3.4,0.6-3.4,0.6
		c2.8,2.4,5.9,4.5,9.3,6.2c-4.4-0.1-34.4,1.1-54.8,45.9c0,0-1.6,24.3,14.8,39.4c6.5,6,12.8,9.5,18.2,11
		c-17.7,20.8-50.4,69.1-50.4,143.6c0,0,0.3,65.3,49.1,129.6c0,0,27,19.8,41.9,19.2l-2.1-14.5c0,0,28,4.4,47.5-4.1
		c2.9-1.3,6.8-3.3,11.3-6c0.9,3,1.3,6.3,0,9.2c-3.6,7.6-25.6,34.6-25.6,34.6l-38.9,18c0,0-1.6-0.8-4.2-2.2c-0.7-0.4-1.5-0.8-2.4-1.3
		c-0.2-0.1-0.4-0.2-0.5-0.3c-4.2-2.2-10-5.2-16.1-8.3c0,0-0.1,0-0.1,0l0.3,0.5l-21.3-9.7c-0.4-0.3-0.8-0.6-1.3-0.8
		c-11-6.1-65.5-25.5-82.1-31.4c-18.2-9.4-68.3-26.7-141,17.8c0,0-94.6-83.6-61.6-209.6c0,0-38.7,31.4-59.6,36.9
		c-20.9,5.5-44.4-11.8-43.1-32.3c0,0,71.1,2.6,96.9-14.2c0,0-33.2-11.4-36-26.3c-2.8-14.9,25.9-24.7,25.9-24.7s-12.2-8-51.8,11.3
		c-39.6,19.3-49.7,32-49.7,32s-35.3,52.8,46,77.4c0,0,31.1-9.3,46.2-19.9c0,0-45.2,151.6,78.2,234.3c0,0,60.4-53.8,122.5-72.1
		c14.8,5.1,35.9,14.9,54.4,24c-3.1,3.2-7.4,7.7-12.5,12.9c-0.7,0.7-1.3,1.4-2,2.1c-2.8,2.8-5.7,5.7-8.7,8.7
		c-0.8,0.7-1.5,1.5-2.3,2.2c-1.5,1.5-3.1,3-4.6,4.5c-7,6.7-14.1,13.1-20.3,18.2c-5.5,4.5-12,9.3-18.7,14.1
		c-20.2,14.6-43,30-51.5,42.2c-6.4,9.2-10.1,25.9-13.6,41.4c-0.4,1.7-0.8,3.4-1.2,5.1c-2.3,10.2-4.7,19.4-7.7,25.3
		c-8.2,15.6-14.7,24.3-26.1,58.2c-7.8,23.3-10,30.6-10.1,30.8c0,0-20.6-79.8-20.6-79.8c-2.2,9-6,30.6-7.2,49.2
		c-0.1,1.7-0.2,3.4-0.3,5c-0.2,4.9-0.2,9.4,0.1,13.3c0.1,1.3,0.2,2.5,0.4,3.7c0.2,1.1,0.3,2.3,0.5,3.6c2.4,17.1,5.5,41.5,1.3,59.5
		c-0.3,1.3-0.6,2.5-1,3.8c-0.6,1.8-1.1,3.5-1.6,5.2c-2.1,7.1-3.4,12.8-4.6,21.3c-0.1,0.7-0.2,1.3-0.3,2c-0.2,1.4-0.4,2.8-0.5,4.3
		c-0.1,0.8-0.2,1.6-0.3,2.4c-0.2,1.6-0.4,3.3-0.5,5.2c-0.1,0.9-0.2,1.9-0.3,2.8c-0.2,1.9-0.4,4-0.6,6.2c-0.1,1.1-0.2,2.2-0.3,3.4
		c-0.6,7-1.2,15.2-2,25c-1.3,17-3.7,30.8-6.3,41.8c-6.3-39.4-14.6-71.9-25.9-101.1c-5.9-21-17.1-61.5-29.9-88.2
		c-18.5-38.7-39.3-113.1-26.5-222.7c9.8-84.2,12.7-149.7,12.7-149.7s-39.5,41.1-50.8,158c-11.3,116.9,8.5,200.1,8.5,200.1
		s26.3,83.5,43.9,112.4c17.6,28.9,49.6,244.5,63.8,294.5c14.2,49.9,55.1,181.7,96.7,259.6c7,13,20,9.7,28.9,7.4
		c7-1.8,38.5-8.9,38.5-8.9c20.8-3.9,28.4,4.6,29.2,7.5c0,0,0,0,0,0c0.1,0.2,0.1,0.4,0.1,0.6c0,0,0,0,0,0c0,0.2,0,0.3,0.1,0.4
		c0,0,0,0,0,0c0,0.1,0,0.1,0,0.1c15.5-3.2,26.9-0.8,35.1,4c1.3,0.7,2.4,1.6,3.6,2.4c0.6,0.4,1.1,0.9,1.6,1.3c1,0.9,2,1.8,2.9,2.8
		c0.4,0.5,0.9,1,1.3,1.5c5.4,6.5,19.4,26.3,20,32c1.5,14.1-12,31.1-12,31.1l-16.4,4.3c0.2-52.5-47.7-47-47.7-47
		c30,20.6,28.2,41.9,23.8,53.9c-2.9,1.7-6.2,3.3-10,4.9c-3,1.2-6.3,2.4-9.9,3.6c-1.8,0.6-3.7,1.2-5.6,1.7c-3.9,1.1-8,2.3-12.4,3.4
		c-8,2.1-35.3-1.9-67.1-4.8c-38.6-3.5-63,4.1-95.1-24.9c-0.1-0.1-18.8,7.1-36.8-0.6c-8.1-3.5-21.7-12.1-33.4-30.9
		c-16.5-26.4-25-42.2-41.7-74c0,0,42.4,1.7,64.4-21.7c25.8-27.4,16.9-83.4,16.9-83.4c-11.6,15.3-42.8,56.6-59.3,57.6
		c-11.7,0.7-35.2,4.6-50.3-1.8c-7.6-13.4-33.7-55.1-44.4-69.8c33.3-0.6,60.4-15.1,60.4-15.1c40.2-26.4,58-124.8,58-124.8
		s-77.2,93.1-159.7,68.2c-8.6-10.2-94.1-141.2-97.8-149.9l-24.3-175.1c-2.4,20.1-27.2,179.6-27.2,179.6c1.3,8.5,57.1,76.8,57.1,76.8
		s-34.8,18.2-67.2,18.1c-29.4-22.6-85.4-41.2-85.4-41.2c-2.6-18.3-25.2-70.5-40.8-108.9c-15.6-38.4-74.7-140.2-74.7-140.2
		c4,32.5,43.9,146.1,43.9,146.1c-3.6,28.7,1.7,97.1,3.7,119.9c0.4,4.7,3.1,8.8,7.2,11c22.6,12.3,43.2,19,57.2,27.3
		c-22.8,2.7-41.7,5-50.2,6.8c-7.8,1.7-53.8,13.7-70.8,18.7c-34.8-2.3-62.7-12.5-74-17.7l16,73.2l4.8-1.5l1.8-0.6l7.1-2.2l0.2-0.1
		l1.6-0.5l4.7-1.4l1.1-0.3l1.7-0.5l4.3-1.3l3.4-1l0.3-0.1l3.8-1.2l3.3-1l0.5-0.1l1.9-0.6l3.6-1.1c0.1,0,0.1,0,0.2-0.1
		c2.9-0.9,5.6-1.7,8.3-2.5l0.3-0.1l0.6-0.2l3.9-1.1l0.2-0.1l0.3-0.1c4-1.2,7.9-2.3,11.7-3.4c16-4.7,29.3-8.4,40.5-11.3l1.1-0.3
		c10.3-2.7,18.9-4.8,27.3-6.6c7.7-1.6,215.8-37.6,219.2-40.8c6.8,7.4,122.2,172.5,122.2,172.5l0.6,1.1l0.4,0.7l0.4,0.7
		c1.2,2.1,2.3,4.2,3.5,6.3l1.3,2.4l0.3,0.6l2.4,4.4l1.8,3.3l2.1,3.9l0.3,0.6l1.4,2.6l2.1,4c1.1,2,2.1,3.9,3.1,5.8l0.3,0.5l0.9,1.6
		l2.1,3.9l0.9,1.6l2.1,4.1c20.5,44.9,42.8,91.5,66.1,115c26.2,26.4,52.1,31.2,68.2,29.8c0,0,15.1,9.5,36.8,14.4
		c18,4.1,39-0.2,60,2.1c40.5,4.4,30.5,4,75.5,5.8c5.2,0.2,19.4-2.1,23.3-3.3c2.2-0.6,4.2-1.3,6.2-1.9c4.4-1.4,8.2-2.8,11.8-4.2
		c4.5-1.8,8.6-3.7,12.2-5.8l34.9-9.1c5.8-1.5,10.9-4.9,14.6-9.5c4.8-6,20.3-27.6,17.8-51.1c-1.3-12.2-18.1-37-26.2-46.8
		c-0.7-0.9-1.5-1.8-2.3-2.6c-1.6-1.7-3.3-3.4-5.1-5c-0.9-0.8-1.9-1.6-2.9-2.3c-2-1.5-4.1-3-6.3-4.3c-8.1-4.8-20.7-9.7-37.9-9.3
		c-8.7-5.8-22-9.4-42.4-5.6c-2,0.4-35.2,7.2-38.4,8.6c-1.8,0.8-3.6,1.5-5.2,2.1c-35.2-45.2-75.1-189.7-86.2-229
		c-2.2-8-10.8-59-12.1-65.2c-15.4-74.8-3.1-86.1,2.2-87.7C1945.4,2392.2,1946.3,2392.3,1946.3,2392.3z M2235,1470.6
		c0.8-0.2,1.7-0.4,2.7-0.6C2236.7,1470.2,2235.8,1470.4,2235,1470.6z M2314.5,1577.5c-1.6,15.2-4.1,10-5.2,6.7
		c-1.2-3.3-1.8-24-11.9-32.8c0,0-4.6,0.6-7.5,5.3c4.6,9.9,7.6,23,8.7,36.7c1.4,17-2.9,12.9-2.9,12.9c-9.5-32.4-43.9-43.4-43.9-43.4
		c4.8-4,10.3-8.2,16-12.2c19.7-12.9,34.4-18.4,43-20.7C2317.5,1551.3,2315.7,1566.1,2314.5,1577.5z M2286.4,1444.1L2286.4,1444.1
		L2286.4,1444.1C2286.4,1444.1,2286.4,1444.1,2286.4,1444.1z M2282.9,1447.6c-0.3,0.3-0.6,0.5-0.9,0.8
		C2282.3,1448.1,2282.6,1447.9,2282.9,1447.6z M2205.4,1532.4c0,0-7.1-19.2,33.6-54.4c19.5,9.9,46,8.4,58.1,0.9
		c0.1,0,0.1-0.1,0.2-0.1c0.1-0.1,0.2-0.1,0.2-0.2c0,0,0,0,0,0c0,0,0,0,0,0c0,0,0,0,0,0c0,0,0,0,0,0c1.2-0.7,2.2-1.5,3.1-2.4
		c0,0,0,0,0,0c0,0,0,0,0.1,0c0,0,0,0,0,0c0,0,0,0,0,0c0,0,0,0,0,0c0,0,0,0,0,0c0,0,0,0-0.1,0c0.1,0.2,0.3,0.4,0.4,0.7
		c0.1,0.2,0.3,0.5,0.4,0.8c0.2,0.4,0.5,0.8,0.7,1.3c0.1,0.3,0.3,0.5,0.4,0.8c0.3,0.5,0.6,1.1,0.9,1.6c0.1,0.2,0.3,0.5,0.4,0.7
		c0.4,0.7,0.7,1.4,1.1,2.1c0.1,0.2,0.2,0.3,0.3,0.5c1,1.9,1.9,3.8,2.9,5.8c0.1,0.1,0.1,0.2,0.1,0.3c0.4,0.9,0.8,1.7,1.2,2.6
		c0.1,0.3,0.2,0.5,0.4,0.8c0.3,0.7,0.6,1.4,0.9,2.1c0.1,0.3,0.3,0.7,0.4,1c0.3,0.6,0.5,1.3,0.7,1.9c0.1,0.4,0.3,0.7,0.4,1.1
		c0.2,0.6,0.4,1.2,0.6,1.7c0.1,0.4,0.2,0.7,0.3,1c0.2,0.6,0.3,1.1,0.5,1.6c0.1,0.3,0.2,0.6,0.3,1c0.1,0.6,0.2,1.1,0.3,1.6
		c0,0.3,0.1,0.5,0.1,0.8c0.1,0.7,0.2,1.4,0.2,2.1c0,0.7,0,1.4-0.1,2c0,0,0,0,0,0c0,0.1,0,0.2,0,0.3c0-0.1,0-0.2,0-0.3
		c-10.8,5.8-33,14.2-51.8,26.4c-14,9.2-22.4,14.8-27.5,18.3c4.7-16.4,10.9-29.7,26.1-44.3c0,0-22.4,4.2-36.9,25.6
		c0,0,5.7-26.2,24.8-43C2249.3,1495.4,2232.4,1494.8,2205.4,1532.4z M2258.9,1805.5c-7.9,6.2-17.7-2.1-21.1-5.4
		c-3.4-3.3-36.2-58-36.2-58l-1.5-8.8c0,0,10.1-14.4,37.7,23.7c0,0,21.8,28.7,30,24.8C2267.8,1781.8,2266.9,1799.2,2258.9,1805.5z
		 M2308.4,1829.6c-8,1.8-21.1,5.3-23.6,5.1c0,0-4.9,1.4-10,1c-7.5-0.6-9.9-5.1-10.4-7.7c-0.5-2.6-0.3-5,2.9-9.8
		c0,0,24.6-29.9,27.5-36.7c2.8-6.8,3.8-8.5,5.3-8.7c1.4-0.2,4.3,6.3,2.7,15c-1.1,5.8-3.5,17.6-8.2,28.9c5.4,0.3,11.1-1.7,11.1-1.7
		c3.1-1,21.1-24.3,23.6-32.3c2.5-8,3.6-4.6,3.6-4.6c3.5,20-8.6,37.6-15.1,45.4C2315.5,1826.3,2311.9,1828.9,2308.4,1829.6z"/>
	<path class="st4" d="M2232.8,1471c0.7-0.1,1.4-0.3,2.2-0.5C2234.2,1470.8,2233.4,1470.9,2232.8,1471z"/>
	<path class="st4" d="M1402.5,2542.6c8.5-1.8,27.4-4.2,50.2-6.8c-14-8.3-34.7-15-57.2-27.3c-4.1-2.2-6.8-6.4-7.2-11
		c-1.9-22.8-7.2-91.2-3.7-119.9c0,0-39.8-113.6-43.9-146.1c0,0,59.1,101.9,74.7,140.2c15.6,38.4,38.3,90.6,40.8,108.9
		c0,0,55.9,18.6,85.4,41.2c32.4,0.1,67.2-18.1,67.2-18.1s-55.8-68.3-57.1-76.8c0,0,24.8-159.5,27.2-179.6l24.3,175.1
		c3.7,8.7,89.1,139.8,97.8,149.9c82.6,24.9,159.7-68.2,159.7-68.2s-17.8,98.4-58,124.8c0,0-27,14.5-60.4,15.1
		c10.7,14.7,36.8,56.4,44.4,69.8c15.2,6.4,38.7,2.5,50.3,1.8c16.5-1,47.7-42.3,59.3-57.6c0,0,8.9,56-16.9,83.4
		c-22,23.3-64.4,21.7-64.4,21.7c16.7,31.8,25.2,47.7,41.7,74c11.7,18.8,25.4,27.4,33.4,30.9c18,7.7,36.7,0.5,36.8,0.6
		c32.1,29,56.5,21.4,95.1,24.9c31.8,2.9,59.1,6.9,67.1,4.8c4.4-1.2,8.6-2.3,12.4-3.4c1.9-0.6,3.8-1.1,5.6-1.7
		c3.6-1.2,6.9-2.3,9.9-3.6c3.8-1.5,7.1-3.1,10-4.9c4.5-11.9,6.2-33.2-23.8-53.9c0,0,47.9-5.5,47.7,47l16.4-4.3
		c0,0,13.4-16.9,12-31.1c-0.6-5.7-14.6-25.5-20-32c-0.4-0.5-0.8-1-1.3-1.5c-0.9-1-1.9-1.9-2.9-2.8c-0.5-0.4-1.1-0.9-1.6-1.3
		c-1.1-0.9-2.3-1.7-3.6-2.4c-8.2-4.8-19.6-7.2-35.1-4c0,0,0-0.1,0-0.1c0,0,0,0,0,0c0-0.1,0-0.2-0.1-0.4c0,0,0,0,0,0
		c0-0.2-0.1-0.4-0.1-0.6c0,0,0,0,0,0c-0.8-2.9-8.4-11.4-29.2-7.5c0,0-31.5,7.1-38.5,8.9c-8.9,2.3-21.9,5.7-28.9-7.4
		c-41.6-77.9-82.5-209.6-96.7-259.6c-14.2-49.9-46.2-265.5-63.8-294.5c-17.6-28.9-43.9-112.4-43.9-112.4s-19.8-83.1-8.5-200.1
		c11.3-116.9,50.8-158,50.8-158s-2.9,65.6-12.7,149.7c-12.8,109.6,8,184,26.5,222.7c12.8,26.7,24.1,67.1,29.9,88.2
		c11.2,29.2,19.5,61.7,25.9,101.1c2.6-11,5-24.8,6.3-41.8c0.8-9.8,1.4-18,2-25c0.1-1.2,0.2-2.3,0.3-3.4c0.2-2.2,0.4-4.2,0.6-6.2
		c0.1-1,0.2-1.9,0.3-2.8c0.2-1.8,0.4-3.5,0.5-5.2c0.1-0.8,0.2-1.6,0.3-2.4c0.2-1.5,0.3-3,0.5-4.3c0.1-0.7,0.2-1.4,0.3-2
		c1.2-8.5,2.5-14.2,4.6-21.3c0.5-1.6,1-3.3,1.6-5.2c0.4-1.2,0.7-2.5,1-3.8c4.2-18,1.1-42.4-1.3-59.5c-0.2-1.2-0.3-2.4-0.5-3.6
		c-0.2-1.1-0.3-2.4-0.4-3.7c-0.3-3.9-0.3-8.4-0.1-13.3c0.1-1.6,0.2-3.3,0.3-5c1.3-18.6,5-40.1,7.2-49.2c0,0,20.6,79.8,20.6,79.8
		c0.1-0.2,2.3-7.5,10.1-30.8c11.4-33.9,17.9-42.7,26.1-58.2c3.1-5.8,5.4-15.1,7.7-25.3c0.4-1.7,0.8-3.4,1.2-5.1
		c3.5-15.6,7.2-32.2,13.6-41.4c8.5-12.3,31.3-27.7,51.5-42.2c6.7-4.9,13.2-9.6,18.7-14.1c6.2-5.1,13.3-11.5,20.3-18.2
		c1.6-1.5,3.1-3,4.6-4.5c0.8-0.7,1.5-1.5,2.3-2.2c3-3,6-5.9,8.7-8.7c0.7-0.7,1.4-1.4,2-2.1c5.1-5.1,9.4-9.6,12.5-12.9
		c-18.4-9.1-39.5-18.9-54.4-24c-62.1,18.3-122.5,72.1-122.5,72.1c-123.4-82.8-78.2-234.3-78.2-234.3c-15.1,10.7-46.2,19.9-46.2,19.9
		c-81.3-24.5-46-77.4-46-77.4s10.1-12.7,49.7-32c39.6-19.3,51.8-11.3,51.8-11.3s-28.7,9.8-25.9,24.7c2.8,14.9,36,26.3,36,26.3
		c-25.8,16.8-96.9,14.2-96.9,14.2c-1.3,20.5,22.2,37.8,43.1,32.3c20.9-5.5,59.6-36.9,59.6-36.9c-32.9,126,61.6,209.6,61.6,209.6
		c72.7-44.5,122.8-27.2,141-17.8c16.6,5.9,71.1,25.3,82.1,31.4c0.5,0.3,0.9,0.5,1.3,0.8l21.3,9.7l-0.3-0.5c0,0,0.1,0,0.1,0
		c6.1,3.1,11.8,6.1,16.1,8.3c0.2,0.1,0.4,0.2,0.5,0.3c0.9,0.5,1.7,0.9,2.4,1.3c2.6,1.4,4.2,2.2,4.2,2.2l38.9-18c0,0,22-27,25.6-34.6
		c1.3-2.8,1-6.1,0-9.2c-4.5,2.6-8.4,4.7-11.3,6c-19.6,8.5-47.5,4.1-47.5,4.1l2.1,14.5c-14.9,0.6-41.9-19.2-41.9-19.2
		c-48.7-64.4-49.1-129.6-49.1-129.6c0-74.5,32.7-122.8,50.4-143.6c-5.4-1.5-11.7-5-18.2-11c-16.4-15.1-14.8-39.4-14.8-39.4
		c20.4-44.9,50.4-46,54.8-45.9c-3.3-1.7-6.5-3.8-9.3-6.2c0,0,1.3-0.2,3.4-0.6c0,0-0.1,0-0.1,0c0.4-0.3,0.9-0.5,1.5-0.6
		c1-0.3,2.2-0.4,3.6-0.5c10.8-2.7,29.9-8.9,44.2-21.5c0.6-0.6,1.1-1.1,1.6-1.5c0.9-0.8,1.8-1.7,2.6-2.6c-0.5-1.9-3.3-7.6-18.3-10.2
		c0,0-13.1,3.4-40.9,7.9c-11,1.8-19.8,3.2-28.3,5.4c-13,3.4-25.2,8.8-43.1,20.6c0,0-8.9-2.1-28.7-7c-5.9-1.5-15.5,0-26.2,2.8
		c-20.8,5.4-45.4,15.9-53.7,19.4c-0.3,0.1-0.6,0.2-0.8,0.4c-0.8,0.3-1.3,0.6-1.7,0.7l0,0c-0.2,0.1-0.3,0.1-0.4,0.1
		c-1.3,0.3-9.7,6.2-23.2,13.4c-1.4,0.7-2.8,1.4-4.2,2.2c-2.9,1.5-6,3-9.3,4.5c-1.1,0.5-2.2,1-3.4,1.5
		c-9.9,17.1-42.5,77.4-30.9,110.5c0,0-26.1-29.6-13.7-88.2c-1.6,1.1-3.3,2.2-4.9,3.3c-0.5,0.4-1,0.7-1.6,1.1c-1.4,1-2.8,2-4.3,3.1
		c-0.8,0.6-1.6,1.2-2.4,1.8c-1.2,0.9-2.4,1.8-3.7,2.8c-0.8,0.6-1.6,1.2-2.4,1.8c-1.8,1.4-3.6,2.8-5.5,4.3c-0.8,0.7-1.7,1.4-2.5,2
		c-1.1,0.9-2.3,1.8-3.4,2.8c-1,0.8-2,1.6-2.9,2.4c-1,0.9-2.1,1.7-3.1,2.6c-1,0.8-2,1.7-2.9,2.5c-1.7,1.5-3.5,3-5.2,4.5
		c-9.3,8.2-18.6,16.8-27.6,25.4c0,0-1.3,0.3-3.7,0.9c-10.7,2.8-43.1,12-73.6,28.3c-37.3,19.8-101,56.1-123.5,74.8
		c-1.5,1.3-3.3,2.8-5.2,4.5c0,0,0,0,0,0c-22.1,37.7-34.5,102.3-42.3,153.3c-9,59.4,6,91.2,29.4,142.1c23.4,50.9,36.7,67.5,55.9,98.2
		c19.2,30.7,8.6,41.3,8.6,41.3s-6.9-30.6-49-63.2c-42.1-32.6-72.3-109.6-72.3-109.6c-5.6,80.8,43,274.9,43,274.9
		s-75.1-77.6-85.2-257.1c-5-87.7,7.6-155,22.5-197.6l-88.3,23.1l-60.6,69.5c0,0-9.1,2.3-22.1,5.5c0,0,0,0,0,0
		c-4.1,34.9-13.4,113.6-13.6,116.2c-0.2,3.4-4.9,75.1-0.3,92.8c4.7,17.8,38.3,69.3,38.3,69.3s2.6-2.9,29.5,57.1
		c26.9,60,38,115.2,38,115.2l-59.9-79.3c0,0-71.3-88.6-91.9-129c-20.6-40.4-15.3-75.4-15.3-75.4l7.6-150c-2.9,0.7-5.6,1.4-8,2.1
		c-7.2,1.9-11.8,3.2-12.3,3.4c-0.1,0-0.4,0.1-1,0.3c-5.7,1.5-34.3,8-72.9,16.7c-4.7,14-11.4,33.7-12.2,36.1
		c-1.3,3.7-23.5,81-25.9,101.8c-2.4,20.7,8.1,48.2,18,111.5c9.9,63.3,38.9,127.3,51.4,162c12.5,34.7,25.3,58.2,25.3,58.2
		s-17.9-8.7-33.4-33.7c-15.5-25-78.2-119.2-88.3-136.7c-10.2-17.5-31.1-178.5-31.1-178.5l9.6-101.1c-15,3.4-30.1,6.8-45,10.2
		l130.5,596.6c11.3,5.2,39.2,15.4,74,17.7C1348.7,2556.3,1394.7,2544.3,1402.5,2542.6z M2083.7,1517.4c13,2.9,27.9,3.8,38.3,0.3
		c0,0-10.8,7.3-16.2,9.8c-6.8,21.2-33.1,19.5-39.4,3.4c-5.6-1.3-19.3,8.8-23.1,13.4C2050.6,1526,2070.6,1514.5,2083.7,1517.4z
		 M2089,1677.8c4.9-11.3-3.2-36.1,48.6-98.8c0,0,6.9,9.4-0.6,19.1c-7.5,9.8-32.9,62.3-20.7,117.2c0,0-63.9-4.5-81-88.9
		C2035.3,1626.4,2071.6,1685.4,2089,1677.8z M1990.9,1616.3c0.9,12.1,36.4,62,45.5,79.7c9.1,17.7,35.4,45.5,84,81.9
		c48.7,36.4,50.2,55,50.2,55s-11.6-5.9-43.1-27.8c-31.5-21.9-78.4-21.9-78.4-21.9s-1.7-36.4-27.9-76.5
		c-26.1-40.1-31.3-81.2-31.3-81.2S1990,1604.2,1990.9,1616.3z"/>
	<path class="st3" d="M2116.3,1715.3c-12.2-54.9,13.2-107.4,20.7-117.2c7.5-9.8,0.6-19.1,0.6-19.1c-51.7,62.7-43.7,87.5-48.6,98.8
		c-17.4,7.7-53.7-51.3-53.7-51.3C2052.4,1710.8,2116.3,1715.3,2116.3,1715.3z"/>
	<path class="st3" d="M2049.2,1783.2c0,0,46.9,0,78.4,21.9c31.5,21.9,43.1,27.8,43.1,27.8s-1.5-18.6-50.2-55
		c-48.7-36.4-74.9-64.2-84-81.9c-9.1-17.7-44.6-67.7-45.5-79.7c-0.9-12.1-0.9,9.2-0.9,9.2s5.2,41.1,31.3,81.2
		C2047.4,1746.8,2049.2,1783.2,2049.2,1783.2z"/>
	<polygon class="st3" points="2286.4,1444.1 2286.4,1444.1 2286.4,1444.1 	"/>
	<path class="st4" d="M2317.8,1823.6c6.5-7.8,18.6-25.4,15.1-45.4c0,0-1.1-3.4-3.6,4.6c-2.5,8-20.5,31.3-23.6,32.3
		c0,0-5.7,1.9-11.1,1.7c4.7-11.3,7.1-23.1,8.2-28.9c1.6-8.7-1.3-15.2-2.7-15c-1.4,0.2-2.4,1.9-5.3,8.7c-2.8,6.8-27.5,36.7-27.5,36.7
		c-3.1,4.8-3.4,7.2-2.9,9.8c0.5,2.6,2.9,7.2,10.4,7.7c5.1,0.4,10-1,10-1c2.5,0.2,15.6-3.4,23.6-5.1
		C2311.9,1828.9,2315.5,1826.3,2317.8,1823.6z"/>
	<path class="st4" d="M2237.8,1757c-27.6-38-37.7-23.7-37.7-23.7l1.5,8.8c0,0,32.8,54.7,36.2,58c3.4,3.3,13.2,11.6,21.1,5.4
		c8-6.3,8.9-23.7,8.9-23.7C2259.6,1785.6,2237.8,1757,2237.8,1757z"/>
	<path class="st5" d="M2282,1448.4c0.3-0.3,0.6-0.5,0.9-0.8"/>
	<path class="st3" d="M2237.7,1469.9c-1,0.2-1.9,0.5-2.7,0.6C2235.8,1470.4,2236.7,1470.2,2237.7,1469.9z"/>
	<path class="st4" d="M2267.7,1550.7c-5.6,4-11.1,8.2-16,12.2c0,0,34.5,11,43.9,43.4c0,0,4.3,4.1,2.9-12.9
		c-1.1-13.7-4.1-26.8-8.7-36.7c2.9-4.7,7.5-5.3,7.5-5.3c10.1,8.8,10.7,29.4,11.9,32.8c1.2,3.3,3.6,8.5,5.2-6.7
		c1.2-11.4,3-26.2-3.9-47.5C2302.1,1532.4,2287.4,1537.9,2267.7,1550.7z"/>
	<path class="st4" d="M2249.3,1495.4c-19.1,16.7-24.8,43-24.8,43c14.5-21.4,36.9-25.6,36.9-25.6c-15.2,14.5-21.4,27.8-26.1,44.3
		c5-3.5,13.4-9.1,27.5-18.3c18.8-12.3,41-20.6,51.8-26.4c0,0.1,0,0.2,0,0.3c0-0.1,0-0.2,0-0.3c0,0,0,0,0,0c0.1-0.6,0.1-1.3,0.1-2
		c0-0.6-0.1-1.3-0.2-2.1c0-0.2-0.1-0.5-0.1-0.8c-0.1-0.5-0.2-1-0.3-1.6c-0.1-0.3-0.2-0.6-0.3-1c-0.1-0.5-0.3-1.1-0.5-1.6
		c-0.1-0.3-0.2-0.7-0.3-1c-0.2-0.6-0.4-1.2-0.6-1.7c-0.1-0.4-0.3-0.7-0.4-1.1c-0.2-0.6-0.5-1.3-0.7-1.9c-0.1-0.3-0.3-0.7-0.4-1
		c-0.3-0.7-0.6-1.4-0.9-2.1c-0.1-0.3-0.2-0.5-0.4-0.8c-0.4-0.9-0.8-1.7-1.2-2.6c0-0.1-0.1-0.2-0.1-0.3c-1-2-1.9-4-2.9-5.8
		c-0.1-0.2-0.2-0.3-0.3-0.5c-0.4-0.7-0.8-1.4-1.1-2.1c-0.1-0.3-0.3-0.5-0.4-0.7c-0.3-0.6-0.6-1.1-0.9-1.6c-0.2-0.3-0.3-0.5-0.4-0.8
		c-0.3-0.5-0.5-0.9-0.7-1.3c-0.1-0.3-0.3-0.5-0.4-0.8c-0.1-0.2-0.3-0.5-0.4-0.7c-0.9,0.9-1.9,1.6-3.1,2.4c0,0,0,0,0,0
		c-0.1,0.1-0.2,0.1-0.2,0.2c-0.1,0-0.1,0.1-0.2,0.1c-12.1,7.4-38.6,9-58.1-0.9c-40.7,35.2-33.6,54.4-33.6,54.4
		C2232.4,1494.8,2249.3,1495.4,2249.3,1495.4z"/>
	<path class="st4" d="M2300.7,1476.2C2300.7,1476.2,2300.7,1476.2,2300.7,1476.2C2300.7,1476.2,2300.7,1476.3,2300.7,1476.2
		C2300.7,1476.3,2300.7,1476.2,2300.7,1476.2C2300.7,1476.2,2300.7,1476.2,2300.7,1476.2z"/>
	<path class="st4" d="M2300.6,1476.3C2300.6,1476.3,2300.6,1476.3,2300.6,1476.3C2300.6,1476.3,2300.7,1476.3,2300.6,1476.3
		C2300.7,1476.3,2300.6,1476.3,2300.6,1476.3z"/>
	<path class="st4" d="M2297.5,1478.7C2297.5,1478.7,2297.5,1478.7,2297.5,1478.7C2297.5,1478.7,2297.5,1478.7,2297.5,1478.7
		C2297.5,1478.7,2297.5,1478.7,2297.5,1478.7z"/>
	<path class="st4" d="M1989.1,2231c-3.2,14.1-7,27.9-11,41c-15.6,51.5-34.6,92.2-34.6,92.2s3.4,0.7,9.5,2.1
		c10.1,2.2,27.5,5.9,48.4,10.4c10.2-6.2,27-17.3,35.4-28.1c12.6-16.1,31.3-64.5,37.5-107.5c2.3,5,25.2,46.4,28,101.4
		c0.5,9.7-2.6,19.2-8.6,26.8c-5.5,7-13.1,15.6-21.3,22.4c17.5,3.7,34.9,7.2,50.7,10.4c7.4-7.5,30.5-31.4,33.4-43.3
		c3.5-14.3-3.8-61.1-3.8-61.1s36,56.2,30.1,80.1c-1.9,7.8-12.7,26.5-16.4,32.8c10,1.9,17.6,3.1,21.7,3.6c29.6,3.3,76.7,4.4,97,34
		c20.3,29.6,44.7,23.1,80.2,15.6c35.5-7.5,32.8,14.6,65.9,10.7c13-1.5,32.8-4.5,52.2-9.4c4.6-6.8,9-20.7-3.8-43.8
		c0,0,28.6,13.6,26.1,37.1c20.7-7.4,36.9-17.6,37.2-31.1c1-35.3-22.6-50.8-63.1-50.3c-48.1,0.6-76.5-14.4-76.5-14.4
		c-37.2-44.3-106.9-94-106.9-94s-43-26-95.1-32.2c-52.1-6.2-86.4-40.5-108-59.3c-21.6-18.8-70.8-75.3-70.8-75.3s-9,15.7-17.7,48.9
		c-3.5,13.2-6.9,29.2-9.7,48C1993.6,2209.4,1991.5,2220.3,1989.1,2231z"/>
	<path class="st3" d="M2093.8,2369.3c6-7.6,9.1-17.1,8.6-26.8c-2.8-55-25.6-96.4-28-101.4c-6.2,43-24.9,91.4-37.5,107.5
		c-8.5,10.8-25.3,22-35.4,28.1c-5,3-8.4,4.9-8.4,4.9l72.6,15.2c2.3-1.5,4.6-3.2,6.9-5.1C2080.7,2385,2088.3,2376.3,2093.8,2369.3z"
		/>
	<path class="st3" d="M2152.8,2297.7c0,0,7.4,46.8,3.8,61.1c-3,12-26,35.9-33.4,43.3c-1.4,1.5-2.3,2.3-2.3,2.3l44.4,8.3
		c0,0,0.5-0.8,1.2-2.1c3.7-6.3,14.5-25,16.4-32.8C2188.7,2353.9,2152.8,2297.7,2152.8,2297.7z"/>
	<path class="st3" d="M2479.6,2421.4c12.9,23.1,8.4,37,3.8,43.8c-2.4,3.6-4.9,5.3-4.9,5.3l26.3-7.3c0.4-1.6,0.7-3.2,0.9-4.7
		C2508.2,2435,2479.6,2421.4,2479.6,2421.4z"/>
	<path class="st3" d="M2066.3,1530.8c6.3,16.1,32.6,17.8,39.4-3.4c5.4-2.5,16.2-9.8,16.2-9.8c-10.3,3.5-25.2,2.6-38.3-0.3
		c-13.1-2.9-33.1,8.6-40.5,26.9C2047,1539.6,2060.7,1529.5,2066.3,1530.8z"/>
</g>
</svg>
